<?xml version="1.0" encoding="UTF-8" standalone="no"?>
<svg width="16px" height="16px" viewBox="0 0 16 16" version="1.1" xmlns="http://www.w3.org/2000/svg" xmlns:xlink="http://www.w3.org/1999/xlink" xmlns:sketch="http://www.bohemiancoding.com/sketch/ns">
    <!-- Generator: Sketch 3.5.2 (25235) - http://www.bohemiancoding.com/sketch -->
    <title>design_task</title>
    <desc>Created with Sketch.</desc>
    <defs></defs>
    <g id="Page-1" stroke="none" stroke-width="1" fill="none" fill-rule="evenodd" sketch:type="MSPage">
        <g id="design_task" sketch:type="MSArtboardGroup">
            <g id="Design-task" sketch:type="MSLayerGroup" transform="translate(1.000000, 1.000000)">
                <rect id="Rectangle-36" fill="#4BAEE8" sketch:type="MSShapeGroup" x="0" y="0" width="14" height="14" rx="2"></rect>
                <g id="Page-1" transform="translate(3.000000, 3.000000)" fill="#FFFFFF" sketch:type="MSShapeGroup">
                    <path d="M7.99999726,2.54341203 L7.99999726,2.82150779 C7.99466533,2.8438018 7.98604981,2.86586407 7.98450183,2.88840528 C7.96670788,3.1493209 7.90675886,3.40133746 7.8186022,3.64694237 C7.60183816,4.25084277 7.24308218,4.76902788 6.81776308,5.24488063 C6.01509661,6.14291365 5.05014246,6.84610969 4.03748241,7.49079747 C4.01804666,7.50315728 3.9765014,7.50301824 3.95694056,7.49067387 C3.09470033,6.94583792 2.27123777,6.35114558 1.54489138,5.6342456 C1.07256999,5.16804895 0.652520279,4.66160567 0.355214394,4.06575459 C0.107303128,3.56890561 -0.0414592677,3.04886653 0.0102182304,2.48830272 C0.0728723106,1.80889932 0.390943012,1.26913089 0.957738059,0.884926142 C1.47604538,0.533583044 2.0509556,0.407389366 2.66691072,0.570446182 C3.19868078,0.711208988 3.60129618,1.04348708 3.93412741,1.46582184 C3.95396969,1.49098951 3.97385889,1.51609538 3.99074593,1.53744695 C4.11258287,1.40329665 4.2198469,1.26954803 4.34309109,1.15222252 C4.85695775,0.663021172 5.45235133,0.414434459 6.18149659,0.535174369 C7.01409067,0.67303262 7.74780169,1.34583897 7.93304324,2.1649237 C7.96128213,2.28977324 7.97796591,2.41718745 7.99999726,2.54341203" id="Fill-1"></path>
                </g>
            </g>
        </g>
    </g>
</svg>