<?xml version="1.0" encoding="UTF-8" standalone="no"?>
<svg width="16px" height="16px" viewBox="0 0 16 16" version="1.1" xmlns="http://www.w3.org/2000/svg" xmlns:xlink="http://www.w3.org/1999/xlink" xmlns:sketch="http://www.bohemiancoding.com/sketch/ns">
    <!-- Generator: Sketch 3.5.2 (25235) - http://www.bohemiancoding.com/sketch -->
    <title>requirement</title>
    <desc>Created with Sketch.</desc>
    <defs></defs>
    <g id="Page-1" stroke="none" stroke-width="1" fill="none" fill-rule="evenodd" sketch:type="MSPage">
        <g id="requirement" sketch:type="MSArtboardGroup">
            <g id="Requirement" sketch:type="MSLayerGroup" transform="translate(1.000000, 1.000000)">
                <rect id="Rectangle-36" fill="#904EE2" sketch:type="MSShapeGroup" x="0" y="0" width="14" height="14" rx="2"></rect>
                <g id="Page-1" transform="translate(2.000000, 2.000000)" sketch:type="MSShapeGroup">
                    <path d="M5,0.50015 C2.51501717,0.50015 0.49985,2.51441714 0.49985,5.0003 C0.49985,7.48528283 2.51501717,9.50045 5,9.50045 C7.48498283,9.50045 9.50015,7.48528283 9.50015,5.0003 C9.50015,2.51441714 7.48498283,0.50015 5,0.50015" id="Fill-1" stroke="#FFFFFF"></path>
                    <path d="M6.916,3.7773 L4.916,6.7773 C4.908,6.7893 4.895,6.7933 4.886,6.8043 C4.874,6.8203 4.868,6.8393 4.853,6.8533 C4.829,6.8783 4.798,6.8903 4.77,6.9093 C4.75,6.9223 4.733,6.9383 4.711,6.9483 C4.644,6.9793 4.573,7.0003 4.5,7.0003 L4.5,7.0003 C4.5,7.0003 4.5,7.0003 4.499,7.0003 L4.499,6.9993 C4.413,6.9993 4.332,6.9693 4.256,6.9263 C4.245,6.9203 4.233,6.9223 4.223,6.9163 C4.208,6.9063 4.201,6.8913 4.188,6.8803 C4.175,6.8703 4.159,6.8653 4.146,6.8533 L3.146,5.8533 C2.951,5.6583 2.951,5.3413 3.146,5.1463 C3.342,4.9513 3.658,4.9513 3.853,5.1463 L4.422,5.7153 L6.084,3.2223 C6.238,2.9923 6.549,2.9323 6.777,3.0843 C7.007,3.2373 7.069,3.5473 6.916,3.7773" id="Path" fill="#FFFFFF"></path>
                </g>
            </g>
        </g>
    </g>
</svg>