<?xml version="1.0" encoding="UTF-8" standalone="no"?>
<svg width="16px" height="16px" viewBox="0 0 16 16" version="1.1" xmlns="http://www.w3.org/2000/svg" xmlns:xlink="http://www.w3.org/1999/xlink" xmlns:sketch="http://www.bohemiancoding.com/sketch/ns">
    <!-- Generator: Sketch 3.3 (11970) - http://www.bohemiancoding.com/sketch -->
    <title>question</title>
    <desc>Created with Sketch.</desc>
    <defs></defs>
    <g id="Page-1" stroke="none" stroke-width="1" fill="none" fill-rule="evenodd" sketch:type="MSPage">
        <g id="question" sketch:type="MSArtboardGroup">
            <g id="Question" sketch:type="MSLayerGroup" transform="translate(1.000000, 1.000000)">
                <path d="M13,14 L1,14 C0.448,14 0,13.552 0,13 L0,1 C0,0.448 0.448,0 1,0 L13,0 C13.552,0 14,0.448 14,1 L14,13 C14,13.552 13.552,14 13,14" id="Fill-1" fill="#F89232" sketch:type="MSShapeGroup"></path>
                <path d="M5.40625,4.71875 C5.52083391,4.22395586 5.71354031,3.85416789 5.984375,3.609375 C6.28645984,3.36979047 6.64583125,3.25 7.0625,3.25 C7.50000219,3.25 7.84895703,3.36458219 8.109375,3.59375 C8.36979297,3.82291781 8.5,4.104165 8.5,4.4375 C8.5,4.68750125 8.42708406,4.90104078 8.28125,5.078125 C8.18749953,5.20312563 7.89583578,5.46353969 7.40625,5.859375 C6.92187258,6.26562703 6.59375086,6.62499844 6.421875,6.9375 C6.26562422,7.26562664 6.1875,7.65624773 6.1875,8.109375 L6.1875,8.46875 L6.203125,8.5625 C6.203125,8.62500031 6.21223949,8.68229141 6.23046875,8.734375 C6.24869801,8.78645859 6.26692699,8.82812484 6.28515625,8.859375 C6.30338551,8.89062516 6.3346352,8.91796863 6.37890625,8.94140625 C6.4231773,8.96484387 6.45703113,8.98307285 6.48046875,8.99609375 C6.50390637,9.00911465 6.54687469,9.01822914 6.609375,9.0234375 C6.67187531,9.02864586 6.71484363,9.03125 6.73828125,9.03125 L6.875,9.03125 L7,9.03125 C7.17187586,9.03125 7.29947875,9.02473965 7.3828125,9.01171875 C7.46614625,8.99869785 7.54036426,8.95963574 7.60546875,8.89453125 C7.67057324,8.82942676 7.703125,8.72916734 7.703125,8.59375 C7.703125,8.41666578 7.71354156,8.23437594 7.734375,8.046875 C7.75000008,7.8541657 7.78124977,7.70312555 7.828125,7.59375 C7.89583367,7.4270825 8.11458148,7.19270984 8.484375,6.890625 C9.18229516,6.30208039 9.63020734,5.84895992 9.828125,5.53125 C10.0364594,5.19270664 10.140625,4.8437518 10.140625,4.484375 C10.140625,3.80728828 9.85416953,3.22916906 9.28125,2.75 C8.72395555,2.23958078 7.9583382,1.984375 6.984375,1.984375 C6.06770375,1.984375 5.32812781,2.2343725 4.765625,2.734375 C4.24999742,3.17187719 3.95312539,3.71874672 3.875,4.375 C3.86458328,4.40625016 3.859375,4.45833297 3.859375,4.53125 C3.859375,4.74479273 3.93489508,4.92838465 4.0859375,5.08203125 C4.23697992,5.23567785 4.41666563,5.3125 4.625,5.3125 C4.80208422,5.3125 4.9609368,5.25651098 5.1015625,5.14453125 C5.2421882,5.03255152 5.33333312,4.89062586 5.375,4.71875 L5.40625,4.71875 Z M7,9.765625 C6.68749844,9.765625 6.41927195,9.87499891 6.1953125,10.09375 C5.97135305,10.3125011 5.859375,10.5781234 5.859375,10.890625 C5.859375,11.1979182 5.97135305,11.4648426 6.1953125,11.6914062 C6.41927195,11.9179699 6.68749844,12.03125 7,12.03125 C7.31250156,12.03125 7.58072805,11.9179699 7.8046875,11.6914062 C8.02864695,11.4648426 8.140625,11.1979182 8.140625,10.890625 C8.140625,10.5781234 8.02864695,10.3125011 7.8046875,10.09375 C7.58072805,9.87499891 7.31250156,9.765625 7,9.765625 Z" id="Fill" fill="#FFFFFF" sketch:type="MSShapeGroup"></path>
            </g>
        </g>
    </g>
</svg>