<?xml version="1.0" encoding="UTF-8" standalone="no"?>
<svg width="16px" height="16px" viewBox="0 0 16 16" version="1.1" xmlns="http://www.w3.org/2000/svg" xmlns:xlink="http://www.w3.org/1999/xlink" xmlns:sketch="http://www.bohemiancoding.com/sketch/ns">
    <!-- Generator: Sketch 3.5.2 (25235) - http://www.bohemiancoding.com/sketch -->
    <title>defect</title>
    <desc>Created with Sketch.</desc>
    <defs>
        <rect id="path-1" x="0" y="0" width="14" height="14" rx="2"></rect>
    </defs>
    <g id="Page-1" stroke="none" stroke-width="1" fill="none" fill-rule="evenodd" sketch:type="MSPage">
        <g id="defect" sketch:type="MSArtboardGroup">
            <g id="Defect" sketch:type="MSLayerGroup" transform="translate(1.000000, 1.000000)">
                <g id="Path-133">
                    <use id="Mask" fill="#E5493A" sketch:type="MSShapeGroup" xlink:href="#path-1"></use>
                    <g id="Page-1" fill="#FFFFFF" sketch:type="MSShapeGroup">
                        <g transform="translate(2.000000, 3.000000)" id="Fill-1">
                            <path d="M9.8934,4.2054 L9.9004,4.2004 L8.4004,2.2004 L8.3934,2.2054 C8.3024,2.0834 8.1634,2.0004 8.0004,2.0004 C7.8044,2.0004 7.6394,2.1154 7.5574,2.2784 L7.5524,2.2764 L6.5504,4.2804 L4.9644,0.3144 L4.9624,0.3154 C4.8894,0.1304 4.7104,0.0004 4.5004,0.0004 C4.2714,0.0004 4.0874,0.1564 4.0274,0.3654 L4.0194,0.3624 L2.3724,6.1264 L0.9474,3.2764 L0.9424,3.2784 C0.8604,3.1154 0.6954,3.0004 0.5004,3.0004 C0.2244,3.0004 0.0004,3.2234 0.0004,3.5004 C0.0004,3.5804 0.0234,3.6534 0.0574,3.7214 L0.0524,3.7234 L2.0524,7.7234 L2.0574,7.7214 C2.1394,7.8844 2.3044,8.0004 2.5004,8.0004 C2.7284,8.0004 2.9124,7.8444 2.9724,7.6354 L2.9814,7.6374 L4.5794,2.0434 L6.0364,5.6854 L6.0374,5.6854 C6.1114,5.8694 6.2894,6.0004 6.5004,6.0004 C6.6954,6.0004 6.8604,5.8844 6.9424,5.7214 L6.9474,5.7234 L8.0854,3.4474 L9.0994,4.7994 L9.1064,4.7944 C9.1984,4.9164 9.3364,5.0004 9.5004,5.0004 C9.7764,5.0004 10.0004,4.7764 10.0004,4.5004 C10.0004,4.3874 9.9564,4.2884 9.8934,4.2054"></path>
                        </g>
                    </g>
                </g>
            </g>
        </g>
    </g>
</svg>